# xmcd
#
# Track frame offsets:
#	150
#	3509
#	14218
#	22970
#	34465
#	40180
#	49894
#	53831
#	65319
#	71932
#	90289
#	96284
#	97128
#	107876
#	125295
#	127106
#	147912
#	152774
#	167982
#	174192
#	186022
#	194641
#	209003
#	211261
#
# Disc length: 3182 seconds
#
# Revision: 2
# Processed by: cddbd v1.5.2PL0 Copyright (c) Steve Scherf et al.
# Submitted via: EZCDAudioConverter 2.1.7.1
#
DISCID=660c6c18
DTITLE=Monty Python - Matching Tie and Handkerchief
DYEAR=2006
DGENRE=
TTITLE0=Election Forum
TTITLE1=Dead Bishops/Rats
TTITLE2=Elephantoplasty
TTITLE3=Novel Writing
TTITLE4=Word Association
TTITLE5=Bruce's Sketch
TTITLE6=Bruce's Song
TTITLE7=Ralph Mellish
TTITLE8=Doctor Quote
TTITLE9=Cheese Emporium
TTITLE10=Wasp/Tiger Club
TTITLE11=Raspberry
TTITLE12=Great Actors
TTITLE13=Background To History
TTITLE14=Record Shop
TTITLE15=First World War
TTITLE16=Mrs. Niggerbaiter
TTITLE17=Oscar Wilde
TTITLE18=Pet Shop
TTITLE19=Phone In
TTITLE20=Psychopath
TTITLE21=TelePrompter Football Results
TTITLE22=Radio Tuning Radio 4 - Announcer Graham Chapman/Radio Time Announcer 
TTITLE22=Terry Jones
TTITLE23=Radio Shop
EXTD=
EXTT0=
EXTT1=
EXTT2=
EXTT3=
EXTT4=
EXTT5=
EXTT6=
EXTT7=
EXTT8=
EXTT9=
EXTT10=
EXTT11=
EXTT12=
EXTT13=
EXTT14=
EXTT15=
EXTT16=
EXTT17=
EXTT18=
EXTT19=
EXTT20=
EXTT21=
EXTT22=
EXTT23=
PLAYORDER=
